<?xml version="1.0" encoding="UTF-8"?>
<!-- Generator: Adobe Illustrator 16.0.0, SVG Export Plug-In . SVG Version: 6.00 Build 0)  -->
<!DOCTYPE svg PUBLIC "-//W3C//DTD SVG 1.1//EN" "http://www.w3.org/Graphics/SVG/1.1/DTD/svg11.dtd">
<svg version="1.1" id="Layer_1" xmlns="http://www.w3.org/2000/svg" xmlns:xlink="http://www.w3.org/1999/xlink" x="0px" y="0px" width="1928px" height="848px" viewBox="0 0 1928 848" enable-background="new 0 0 1928 848" xml:space="preserve">
<g id="iD_Tech">
	<circle fill="#FFFFFF" cx="423.277" cy="423.998" r="423.277"/>
	<g>
		<g>
			<path fill="#94D500" d="M420.235,99.008c-178.716,0-323.585,144.851-323.585,323.559c0,178.73,144.869,323.585,323.585,323.585     c178.702,0,323.585-144.854,323.585-323.585C743.82,243.858,598.937,99.008,420.235,99.008z M420.235,711.284     c-159.208,0-288.729-129.521-288.729-288.718c0-159.186,129.521-288.717,288.729-288.717     c159.156,0,288.703,129.531,288.703,288.717C708.938,581.763,579.391,711.284,420.235,711.284z"/>
			<g>
				<path fill="#94D500" d="M420.235,157.967c-145.935,0-264.625,118.699-264.625,264.6c0,145.92,118.691,264.624,264.625,264.624      c145.893,0,264.626-118.704,264.626-264.624C684.861,276.666,566.127,157.967,420.235,157.967z M345.102,468.531v117.814      h-30.708c-1.169-0.171-2.352-0.252-3.55-0.252c-18.907,0-34.245-15.348-34.245-34.285v-43.902V353.888      c9.677,1.143,37.236,4.8,68.503,12.112V468.531z M345.102,317.845c0,0.034,0,0.063,0,0.113v21.012      c-24.793-1.923-48.688-3.088-68.503-3.786v-17.226v-49.882h68.503V317.845z M466.118,585.695l-82.717,0.041V376.593      c30.123,9.834,58.469,23.358,73.113,41.536v98.852l9.671-0.05c49.527-0.229,89.831-40.759,89.831-90.31      c0-49.547-40.304-90.028-89.831-90.272l-9.671-0.048v0.067v18.603c-20.983-5.425-46.644-9.434-73.113-12.392v-6.211V308.99      v-41.254h82.308l5.076-0.098c85.402,2.665,153.983,72.98,153.983,158.982C624.768,514.152,553.609,585.496,466.118,585.695z"/>
			</g>
		</g>
	</g>
	<g>
		<path fill="#404041" d="M861.82,316.835c0-6.231,2.261-11.606,6.765-16.114c4.505-4.502,9.875-6.756,16.105-6.756    c6.245,0,11.627,2.254,16.119,6.756c4.517,4.508,6.75,9.883,6.75,16.114c0,6.246-2.233,11.615-6.75,16.131    c-4.492,4.496-9.874,6.751-16.119,6.751c-6.231,0-11.601-2.255-16.105-6.751C864.081,328.45,861.82,323.081,861.82,316.835z     M869.104,375.761h31.187v164.3h-31.187V375.761z"/>
		<path fill="#404041" d="M952.289,294.654h85.589c17.328,0,32.532,1.975,45.593,5.897c13.036,3.933,24.371,9.185,33.967,15.767    c9.567,6.583,17.552,14.16,23.904,22.713c6.354,8.544,11.389,17.32,15.07,26.333c3.706,9.013,6.364,18.026,7.985,27.036    c1.606,9.009,2.418,17.327,2.418,24.96c0,15.706-2.896,30.906-8.651,45.575c-5.793,14.672-14.338,27.72-25.658,39.164    c-11.321,11.439-25.368,20.624-42.099,27.559c-16.771,6.937-36.118,10.402-58.055,10.402h-80.063V294.654z M985.549,508.863    h41.951c14.072,0,27.427-1.914,40.024-5.726c12.571-3.817,23.615-9.532,33.101-17.159c9.475-7.613,16.984-17.154,22.523-28.583    c5.542-11.44,8.32-24.781,8.32-40.035c0-7.854-1.275-17.045-3.813-27.562c-2.538-10.513-7.35-20.5-14.392-29.979    c-7.029-9.475-16.798-17.499-29.287-24.087c-12.466-6.589-28.649-9.882-48.504-9.882h-49.924V508.863z"/>
		<path fill="#404041" d="M1302.396,325.851h-79.024v-31.196h191.313v31.196h-79.015v214.21h-33.274V325.851z"/>
		<path fill="#404041" d="M1427.173,469.34c0,7.172,1.558,13.695,4.68,19.59c3.109,5.891,7.217,10.922,12.293,15.069    c5.088,4.159,10.974,7.399,17.686,9.712c6.695,2.301,13.634,3.469,20.796,3.469c9.7,0,18.139-2.244,25.301-6.762    c7.162-4.508,13.741-10.445,19.76-17.854l23.586,18.025c-17.34,22.417-41.602,33.631-72.817,33.631    c-12.943,0-24.64-2.205-35.164-6.59c-10.523-4.371-19.411-10.469-26.681-18.205c-7.283-7.73-12.891-16.862-16.824-27.387    c-3.919-10.512-5.886-21.871-5.886-34.131c0-12.237,2.126-23.62,6.405-34.144c4.278-10.512,10.164-19.63,17.672-27.378    c7.51-7.742,16.479-13.807,26.869-18.197c10.405-4.384,21.729-6.589,33.968-6.589c14.562,0,26.866,2.552,36.927,7.625    c10.03,5.082,18.298,11.73,24.781,19.936c6.461,8.203,11.125,17.439,14.008,27.724c2.909,10.287,4.343,20.744,4.343,31.366v11.089    H1427.173z M1525.613,444.395c-0.252-6.93-1.34-13.295-3.295-19.061c-1.964-5.782-4.929-10.805-8.836-15.083    c-3.947-4.274-8.836-7.62-14.738-10.055c-5.886-2.421-12.77-3.638-20.637-3.638c-7.611,0-14.602,1.447-20.966,4.331    c-6.354,2.896-11.722,6.647-16.122,11.27c-4.369,4.621-7.798,9.758-10.202,15.423c-2.434,5.67-3.645,11.263-3.645,16.813H1525.613    z"/>
		<path fill="#404041" d="M1713.817,419.432c-5.792-6.006-11.867-10.563-18.19-13.69c-6.363-3.11-13.952-4.674-22.71-4.674    c-8.557,0-16.026,1.563-22.365,4.674c-6.35,3.127-11.681,7.398-15.934,12.834c-4.278,5.427-7.519,11.66-9.712,18.718    c-2.219,7.04-3.295,14.377-3.295,21.99c0,7.641,1.275,14.855,3.812,21.666c2.538,6.823,6.114,12.777,10.765,17.86    c4.598,5.082,10.139,9.082,16.624,11.966c6.461,2.883,13.741,4.318,21.831,4.318c8.772,0,16.279-1.555,22.539-4.676    c6.23-3.124,11.998-7.676,17.327-13.688l22.179,22.178c-8.108,9.01-17.515,15.479-28.236,19.416    c-10.765,3.904-22.141,5.896-34.15,5.896c-12.72,0-24.332-2.097-34.845-6.244c-10.512-4.16-19.589-9.994-27.215-17.514    c-7.614-7.51-13.499-16.516-17.659-27.029c-4.174-10.512-6.248-22.117-6.248-34.828c0-12.712,2.074-24.379,6.248-35.016    c4.16-10.623,9.993-19.75,17.5-27.376c7.496-7.625,16.502-13.575,27.044-17.854c10.495-4.269,22.217-6.405,35.175-6.405    c12.01,0,23.49,2.137,34.48,6.405c10.963,4.279,20.492,10.812,28.597,19.589L1713.817,419.432z"/>
		<path fill="#404041" d="M1763.356,278.019h31.204v123.049h0.701c3.92-8.78,10.738-15.887,20.451-21.317    c9.688-5.429,20.918-8.149,33.62-8.149c7.84,0,15.414,1.22,22.709,3.641c7.256,2.428,13.634,6.191,19.056,11.261    c5.421,5.094,9.767,11.611,12.983,19.592c3.24,7.97,4.865,17.389,4.865,28.246v105.721h-31.204v-97.056    c0-7.626-1.035-14.153-3.106-19.587c-2.074-5.42-4.854-9.813-8.319-13.167c-3.481-3.348-7.454-5.773-11.959-7.277    c-4.506-1.498-9.199-2.258-14.034-2.258c-6.486,0-12.491,1.043-18.031,3.124c-5.529,2.078-10.405,5.371-14.554,9.879    c-4.172,4.504-7.399,10.219-9.711,17.154c-2.313,6.937-3.467,15.141-3.467,24.611v84.576h-31.204V278.019z"/>
	</g>
	<g>
		<path fill="#404041" d="M902.07,601.427c-1.288-1.726-2.868-3.028-4.771-3.89c-1.872-0.85-3.853-1.291-5.898-1.291    c-2.367,0-4.544,0.493-6.524,1.447c-1.995,0.973-3.722,2.26-5.158,3.881c-1.461,1.637-2.589,3.521-3.387,5.674    c-0.786,2.156-1.198,4.4-1.198,6.725c0,2.5,0.412,4.809,1.198,6.95c0.798,2.152,1.926,4.029,3.349,5.622    c1.434,1.58,3.134,2.828,5.114,3.744c1.994,0.932,4.188,1.395,6.605,1.395c2.606,0,4.941-0.516,7.003-1.537    c2.046-1.023,3.825-2.5,5.355-4.426l3.8,3.191c-1.94,2.575-4.251,4.449-6.962,5.674c-2.725,1.195-5.768,1.804-9.196,1.804    c-3.043,0-5.902-0.557-8.544-1.7c-2.671-1.117-4.958-2.672-6.91-4.664c-1.955-1.98-3.47-4.346-4.572-7.084    c-1.117-2.734-1.661-5.727-1.661-8.969c0-3.136,0.531-6.072,1.595-8.81c1.064-2.724,2.564-5.091,4.492-7.095    c1.926-2.02,4.213-3.604,6.868-4.772c2.647-1.169,5.571-1.74,8.733-1.74c2.896,0,5.674,0.517,8.345,1.569    c2.67,1.035,4.917,2.75,6.725,5.113L902.07,601.427z"/>
		<path fill="#404041" d="M934.854,592.632h4.758l18.137,42.67h-5.897l-4.349-10.485h-21.341l-4.397,10.485h-5.715L934.854,592.632z     M937.139,599.155h-0.118l-8.851,20.958h17.407L937.139,599.155z"/>
		<path fill="#404041" d="M969.816,592.632h7.534l14.456,33.448h0.118l14.58-33.448h7.35v42.67h-5.051v-35.786h-0.12l-15.307,35.786    h-3.085l-15.309-35.786h-0.119v35.786h-5.048V592.632z"/>
		<path fill="#404041" d="M1030.85,592.632h12.65c1.979,0,3.852,0.185,5.635,0.571c1.792,0.386,3.375,1.024,4.77,1.94    c1.382,0.905,2.486,2.101,3.322,3.614c0.81,1.488,1.222,3.363,1.222,5.57c0,2.335-0.438,4.261-1.328,5.792    c-0.876,1.528-2.021,2.724-3.402,3.614c-1.382,0.865-2.909,1.488-4.558,1.859c-1.633,0.359-3.204,0.545-4.705,0.545h-8.544v19.163    h-5.062V592.632z M1035.911,611.438h8.544c2.539,0,4.598-0.561,6.193-1.717c1.582-1.144,2.394-2.922,2.394-5.341    c0-2.405-0.812-4.188-2.394-5.329c-1.596-1.146-3.654-1.714-6.193-1.714h-8.544V611.438z"/>
		<path fill="#404041" d="M1093.226,600.168c-0.839-1.372-1.966-2.353-3.375-2.979c-1.398-0.638-2.87-0.942-4.4-0.942    c-1.128,0-2.232,0.145-3.321,0.424c-1.09,0.281-2.045,0.707-2.924,1.275c-0.863,0.561-1.555,1.307-2.074,2.223    c-0.517,0.928-0.781,2.004-0.781,3.255c0,0.957,0.146,1.821,0.448,2.55c0.295,0.745,0.799,1.424,1.478,2.036    c0.691,0.598,1.608,1.154,2.764,1.673c1.184,0.531,2.604,1.063,4.292,1.567c1.649,0.53,3.243,1.087,4.799,1.699    c1.555,0.599,2.896,1.372,4.077,2.274c1.195,0.943,2.141,2.086,2.845,3.48c0.704,1.381,1.05,3.121,1.05,5.211    c0,2.137-0.425,3.984-1.263,5.539c-0.852,1.57-1.952,2.869-3.349,3.896c-1.381,1.021-2.977,1.777-4.784,2.283    c-1.808,0.504-3.681,0.757-5.607,0.757c-1.248,0-2.484-0.118-3.734-0.331c-1.248-0.215-2.445-0.571-3.588-1.023    c-1.142-0.465-2.218-1.076-3.228-1.807c-0.998-0.746-1.861-1.662-2.594-2.75l4.348-3.549c0.93,1.566,2.206,2.739,3.867,3.549    c1.635,0.809,3.374,1.205,5.223,1.205c1.089,0,2.192-0.156,3.293-0.475c1.104-0.318,2.103-0.797,2.979-1.422    c0.89-0.615,1.606-1.395,2.166-2.326c0.57-0.916,0.849-1.98,0.849-3.188c0-1.332-0.226-2.408-0.663-3.231    c-0.438-0.81-1.117-1.526-2.047-2.142c-0.919-0.598-2.085-1.14-3.496-1.618c-1.407-0.479-3.056-1.035-4.941-1.688    c-1.529-0.476-2.938-1.035-4.214-1.662c-1.288-0.623-2.404-1.381-3.334-2.283c-0.958-0.89-1.701-1.98-2.245-3.258    c-0.531-1.273-0.811-2.775-0.811-4.541c0-2.063,0.41-3.842,1.208-5.37s1.887-2.79,3.243-3.826    c1.367-1.026,2.909-1.796,4.651-2.314c1.726-0.531,3.534-0.783,5.42-0.783c2.406,0,4.61,0.374,6.594,1.116    c1.992,0.742,3.759,2.033,5.339,3.879L1093.226,600.168z"/>
		<path fill="#404041" d="M1115.351,643.604h-4.653l4.095-14.442h5.487L1115.351,643.604z"/>
		<path fill="#404041" d="M1173.007,592.632h4.772l18.126,42.67h-5.915l-4.332-10.485h-21.327l-4.413,10.485h-5.714    L1173.007,592.632z M1175.294,599.155h-0.119l-8.864,20.958h17.435L1175.294,599.155z"/>
		<path fill="#404041" d="M1237.841,601.427c-1.275-1.726-2.868-3.028-4.757-3.89c-1.886-0.85-3.854-1.291-5.898-1.291    c-2.38,0-4.557,0.493-6.536,1.447c-1.996,0.973-3.711,2.26-5.171,3.881c-1.437,1.637-2.564,3.521-3.362,5.674    c-0.811,2.156-1.212,4.4-1.212,6.725c0,2.5,0.401,4.809,1.212,6.95c0.798,2.152,1.913,4.029,3.347,5.622    c1.424,1.58,3.137,2.828,5.116,3.744c1.993,0.932,4.188,1.395,6.606,1.395c2.603,0,4.941-0.516,6.99-1.537    c2.059-1.023,3.826-2.5,5.367-4.426l3.786,3.191c-1.926,2.575-4.252,4.449-6.961,5.674c-2.712,1.195-5.767,1.804-9.183,1.804    c-3.056,0-5.914-0.557-8.573-1.7c-2.643-1.117-4.941-2.672-6.88-4.664c-1.955-1.98-3.484-4.346-4.587-7.084    c-1.117-2.734-1.66-5.727-1.66-8.969c0-3.136,0.531-6.072,1.608-8.81c1.063-2.724,2.551-5.091,4.479-7.095    c1.927-2.02,4.209-3.604,6.867-4.772c2.647-1.169,5.568-1.74,8.746-1.74c2.883,0,5.674,0.517,8.345,1.569    c2.658,1.035,4.902,2.75,6.724,5.113L1237.841,601.427z"/>
		<path fill="#404041" d="M1270.626,592.632h4.755l18.14,42.67h-5.902l-4.331-10.485h-21.327l-4.41,10.485h-5.729L1270.626,592.632z     M1272.924,599.155h-0.134l-8.849,20.958h17.419L1272.924,599.155z"/>
		<path fill="#404041" d="M1304.803,592.632h16.383c1.409,0,2.898,0.174,4.467,0.493c1.566,0.305,3.121,0.82,4.662,1.528    c1.555,0.702,3.031,1.619,4.467,2.75c1.436,1.114,2.672,2.469,3.76,4.053c1.076,1.595,1.955,3.413,2.604,5.487    c0.624,2.072,0.958,4.412,0.958,7.029c0,2.605-0.334,4.945-0.958,7.018c-0.649,2.07-1.528,3.904-2.604,5.488    c-1.088,1.58-2.324,2.935-3.76,4.066c-1.436,1.113-2.912,2.03-4.467,2.734c-1.541,0.705-3.096,1.211-4.662,1.529    c-1.568,0.334-3.058,0.493-4.467,0.493h-16.383V592.632z M1309.865,630.598h9.635c2.445,0,4.717-0.32,6.814-0.959    c2.073-0.648,3.896-1.646,5.409-2.99c1.543-1.34,2.738-3.068,3.629-5.14c0.876-2.101,1.314-4.612,1.314-7.536    c0-2.95-0.438-5.447-1.314-7.533c-0.891-2.101-2.086-3.814-3.629-5.154c-1.514-1.357-3.336-2.342-5.409-2.979    c-2.098-0.649-4.369-0.969-6.814-0.969h-9.635V630.598z"/>
		<path fill="#404041" d="M1356.624,592.632h26.817v4.705h-21.752v13.381h20.304v4.702h-20.304v15.178h22.843v4.704h-27.908V592.632    z"/>
		<path fill="#404041" d="M1398.736,592.632h7.534l14.472,33.448h0.119l14.579-33.448h7.348v42.67h-5.062v-35.786h-0.107    l-15.311,35.786h-3.08l-15.293-35.786h-0.121v35.786h-5.078V592.632z"/>
		<path fill="#404041" d="M1459.798,592.632h5.047v42.67h-5.047V592.632z"/>
		<path fill="#404041" d="M1481.844,592.632h26.814v4.705h-21.753v13.381h20.306v4.702h-20.306v15.178h22.83v4.704h-27.892V592.632z    "/>
		<path fill="#404041" d="M1544.219,600.168c-0.85-1.372-1.967-2.353-3.376-2.979c-1.396-0.638-2.884-0.942-4.398-0.942    c-1.143,0-2.233,0.145-3.335,0.424c-1.076,0.281-2.046,0.707-2.909,1.275c-0.865,0.561-1.555,1.307-2.074,2.223    c-0.52,0.928-0.784,2.004-0.784,3.255c0,0.957,0.146,1.821,0.453,2.55c0.29,0.745,0.798,1.424,1.474,2.036    c0.69,0.598,1.595,1.154,2.765,1.673c1.169,0.531,2.593,1.063,4.29,1.567c1.636,0.53,3.243,1.087,4.786,1.699    c1.555,0.599,2.909,1.372,4.093,2.274c1.184,0.943,2.138,2.086,2.843,3.48c0.693,1.381,1.05,3.121,1.05,5.211    c0,2.137-0.426,3.984-1.272,5.539c-0.838,1.57-1.956,2.869-3.34,3.896c-1.38,1.021-2.987,1.777-4.797,2.283    c-1.79,0.504-3.664,0.757-5.607,0.757c-1.235,0-2.472-0.118-3.719-0.331c-1.263-0.215-2.445-0.571-3.588-1.023    c-1.158-0.465-2.22-1.076-3.229-1.807c-0.994-0.746-1.873-1.662-2.59-2.75l4.342-3.549c0.932,1.566,2.208,2.739,3.855,3.549    c1.647,0.809,3.392,1.205,5.235,1.205c1.092,0,2.18-0.156,3.284-0.475c1.103-0.318,2.097-0.797,2.973-1.422    c0.906-0.615,1.626-1.395,2.182-2.326c0.571-0.916,0.839-1.98,0.839-3.188c0-1.332-0.215-2.408-0.652-3.231    c-0.453-0.81-1.114-1.526-2.06-2.142c-0.917-0.598-2.074-1.14-3.481-1.618c-1.409-0.479-3.058-1.035-4.957-1.688    c-1.515-0.476-2.924-1.035-4.201-1.662c-1.302-0.623-2.404-1.381-3.347-2.283c-0.943-0.89-1.688-1.98-2.233-3.258    c-0.531-1.273-0.81-2.775-0.81-4.541c0-2.063,0.397-3.842,1.195-5.37c0.81-1.528,1.9-2.79,3.255-3.826    c1.371-1.026,2.912-1.796,4.652-2.314c1.729-0.531,3.521-0.783,5.421-0.783c2.406,0,4.599,0.374,6.591,1.116    c1.993,0.742,3.76,2.033,5.329,3.879L1544.219,600.168z"/>
		<path fill="#404041" d="M1611.659,629.161c-1.744,2.167-3.589,3.841-5.555,5.05c-1.967,1.21-4.375,1.808-7.229,1.808    c-1.808,0-3.536-0.265-5.184-0.812c-1.647-0.531-3.084-1.33-4.305-2.377c-1.236-1.038-2.22-2.326-2.95-3.828    c-0.757-1.503-1.129-3.215-1.129-5.155c0-1.487,0.253-2.856,0.755-4.119c0.504-1.276,1.184-2.419,2.059-3.442    c0.851-1.025,1.863-1.941,3.006-2.709c1.155-0.787,2.364-1.489,3.641-2.074c-1.396-1.408-2.605-2.896-3.614-4.465    c-1.009-1.57-1.503-3.365-1.503-5.422c0-1.566,0.294-2.965,0.904-4.186c0.599-1.222,1.396-2.26,2.405-3.072    c1.01-0.82,2.179-1.447,3.511-1.871c1.313-0.426,2.724-0.638,4.209-0.638c1.447,0,2.805,0.2,4.093,0.612    c1.291,0.396,2.419,0.982,3.417,1.767c0.983,0.782,1.755,1.78,2.313,2.961c0.559,1.185,0.838,2.564,0.838,4.12    c0,1.316-0.268,2.553-0.813,3.639c-0.53,1.118-1.235,2.104-2.101,2.953c-0.863,0.877-1.833,1.663-2.897,2.365    c-1.062,0.693-2.138,1.328-3.226,1.899l9.036,9.581l5.726-9.581h5.741l-8.2,13.13l9.755,10.007h-6.937L1611.659,629.161z     M1597.906,614.57c-0.919,0.49-1.836,1.01-2.712,1.607c-0.879,0.574-1.689,1.224-2.404,1.955c-0.72,0.716-1.317,1.543-1.755,2.459    c-0.439,0.928-0.653,1.953-0.653,3.084c0,1.168,0.214,2.23,0.653,3.188c0.438,0.955,1.049,1.807,1.807,2.539    c0.768,0.727,1.646,1.287,2.657,1.686c1.009,0.399,2.071,0.596,3.188,0.596c1.091,0,2.101-0.156,3.021-0.475    c0.915-0.318,1.777-0.76,2.563-1.303c0.769-0.545,1.526-1.172,2.23-1.861c0.69-0.705,1.396-1.463,2.074-2.258L1597.906,614.57z     M1599.18,609.084c0.783-0.44,1.621-0.904,2.457-1.383c0.851-0.479,1.625-1.01,2.301-1.621c0.689-0.613,1.25-1.314,1.688-2.112    c0.438-0.813,0.661-1.729,0.661-2.778c0-1.555-0.53-2.791-1.606-3.667c-1.062-0.89-2.338-1.343-3.813-1.343    c-1.688,0-3.149,0.52-4.344,1.543c-1.211,1.035-1.808,2.416-1.808,4.183c0,1.187,0.305,2.208,0.942,3.11    c0.612,0.907,1.273,1.742,2.019,2.512L1599.18,609.084z"/>
		<path fill="#404041" d="M1679.853,636.39c-3.243,0-6.23-0.557-8.943-1.7c-2.697-1.117-5.05-2.672-7.04-4.664    c-1.995-1.98-3.539-4.346-4.638-7.096c-1.117-2.764-1.662-5.74-1.662-8.957c0-3.214,0.545-6.205,1.662-8.957    c1.099-2.75,2.643-5.115,4.638-7.11c1.99-1.979,4.343-3.533,7.04-4.677c2.713-1.116,5.7-1.673,8.943-1.673    c3.258,0,6.245,0.557,8.969,1.673c2.713,1.144,5.05,2.698,7.044,4.677c1.98,1.995,3.532,4.36,4.638,7.11    c1.117,2.752,1.663,5.743,1.663,8.957c0,3.217-0.546,6.193-1.663,8.957c-1.105,2.75-2.657,5.115-4.638,7.096    c-1.994,1.992-4.331,3.547-7.044,4.664C1686.098,635.833,1683.11,636.39,1679.853,636.39z M1679.853,631.684    c2.512,0,4.783-0.463,6.846-1.395c2.071-0.916,3.853-2.176,5.341-3.8c1.488-1.595,2.631-3.47,3.48-5.618    c0.798-2.152,1.21-4.453,1.21-6.898s-0.412-4.758-1.21-6.91c-0.85-2.137-1.992-4.025-3.48-5.636    c-1.488-1.606-3.27-2.868-5.341-3.786c-2.063-0.916-4.334-1.395-6.846-1.395c-2.485,0-4.771,0.479-6.828,1.395    c-2.074,0.918-3.841,2.18-5.332,3.786c-1.487,1.61-2.643,3.499-3.48,5.636c-0.81,2.152-1.222,4.465-1.222,6.91    s0.412,4.746,1.222,6.898c0.838,2.148,1.993,4.023,3.48,5.618c1.491,1.624,3.258,2.884,5.332,3.8    C1675.081,631.221,1677.367,631.684,1679.853,631.684z"/>
		<path fill="#404041" d="M1716.689,592.632h6.376l24.717,35.441h0.122v-35.441h5.062v42.67h-6.394l-24.717-35.43h-0.104v35.43    h-5.063V592.632z"/>
		<path fill="#404041" d="M1769.948,592.632h5.076v37.966h19.518v4.704h-24.594V592.632z"/>
		<path fill="#404041" d="M1806.479,592.632h5.062v42.67h-5.062V592.632z"/>
		<path fill="#404041" d="M1828.522,592.632h6.405l24.702,35.441h0.119v-35.441h5.065v42.67h-6.395l-24.702-35.43h-0.119v35.43    h-5.076V592.632z"/>
		<path fill="#404041" d="M1881.809,592.632h26.818v4.705h-21.753v13.381h20.305v4.702h-20.305v15.178h22.841v4.704h-27.906V592.632    z"/>
	</g>
</g>
<g>
</g>
<g>
</g>
<g>
</g>
<g>
</g>
<g>
</g>
<g>
</g>
<g>
</g>
<g>
</g>
<g>
</g>
<g>
</g>
<g>
</g>
<g>
</g>
<g>
</g>
<g>
</g>
<g>
</g>
</svg>